<?xml version="1.0" encoding="utf-8"?>
<!-- Generator: Adobe Illustrator 22.1.0, SVG Export Plug-In . SVG Version: 6.00 Build 0)  -->
<svg version="1.1" id="Layer_2_1_"
	xmlns="http://www.w3.org/2000/svg"
	xmlns:xlink="http://www.w3.org/1999/xlink" x="0px" y="0px" viewBox="0 0 34 34.1" style="enable-background:new 0 0 34 34.1;" xml:space="preserve">
	<style type="text/css">
	.st0{fill:#4D4D4D;}
	</style>
	<path class="st0" d="M29.6,0H4.5C2,0,0,2,0,4.5v8.5c0,2.5,2,4.5,4.5,4.5h0.7h23.8h0.7c2.5,0,4.5-2,4.5-4.5V4.5C34,2,32,0,29.6,0z
	 M6,16.2l1.3-2.8h19.5l1.3,2.8H6z M32.9,12.9c0,1.8-1.5,3.3-3.3,3.3h-0.3l-1.6-3.6c-0.1-0.2-0.3-0.3-0.5-0.3H6.9
	c-0.2,0-0.4,0.1-0.5,0.3l-1.6,3.6H4.5c-1.8,0-3.3-1.5-3.3-3.3V4.5c0-1.8,1.5-3.3,3.3-3.3h1v1.5c0,0.3,0.3,0.6,0.6,0.6
	c0.3,0,0.6-0.3,0.6-0.6V1.1h6.2v1.5c0,0.3,0.3,0.6,0.6,0.6s0.6-0.3,0.6-0.6V1.1h6.2v1.5c0,0.3,0.3,0.6,0.6,0.6s0.6-0.3,0.6-0.6V1.1
	h6.2v1.5c0,0.3,0.3,0.6,0.6,0.6s0.6-0.3,0.6-0.6V1.1h1c1.8,0,3.3,1.5,3.3,3.3V12.9z M19.5,8.7c0,0.3-0.3,0.6-0.6,0.6h-3.9
	c-0.3,0-0.6-0.3-0.6-0.6s0.3-0.6,0.6-0.6H19C19.3,8.1,19.5,8.4,19.5,8.7z M19.7,30.9c0.2,0.2,0.2,0.6,0,0.8l-2.3,2.3
	c-0.1,0.1-0.1,0.1-0.2,0.1c-0.1,0-0.1,0-0.2,0c-0.1,0-0.1,0-0.2,0c-0.1,0-0.1-0.1-0.2-0.1l-2.3-2.3c-0.2-0.2-0.2-0.6,0-0.8
	c0.2-0.2,0.6-0.2,0.8,0l1.3,1.3l0-9.9c0-0.3,0.3-0.6,0.6-0.6s0.6,0.3,0.6,0.6l0,9.9l1.3-1.3C19.1,30.7,19.5,30.7,19.7,30.9z M9.8,25
	l-1.3,1.3v-4.1c0-0.3-0.3-0.6-0.6-0.6s-0.6,0.3-0.6,0.6v4.1L6.1,25c-0.2-0.2-0.6-0.2-0.8,0c-0.2,0.2-0.2,0.6,0,0.8l2.3,2.3
	c0.1,0.1,0.1,0.1,0.2,0.1c0.1,0,0.1,0,0.2,0s0.1,0,0.2,0c0.1,0,0.1-0.1,0.2-0.1l2.3-2.3c0.2-0.2,0.2-0.6,0-0.8
	C10.4,24.8,10,24.8,9.8,25z M28.7,25c-0.2-0.2-0.6-0.2-0.8,0l-1.3,1.3v-4.1c0-0.3-0.3-0.6-0.6-0.6s-0.6,0.3-0.6,0.6v4.1L24.2,25
	c-0.2-0.2-0.6-0.2-0.8,0c-0.2,0.2-0.2,0.6,0,0.8l2.3,2.3c0.1,0.1,0.1,0.1,0.2,0.1c0.1,0,0.1,0,0.2,0c0.1,0,0.1,0,0.2,0
	c0.1,0,0.1-0.1,0.2-0.1l2.3-2.3C29,25.6,29,25.2,28.7,25z"/>
</svg>
