<?xml version="1.0" encoding="utf-8"?>
<svg version="1.1" id="Layer_1"
  xmlns="http://www.w3.org/2000/svg"
  xmlns:xlink="http://www.w3.org/1999/xlink" x="0px" y="0px" viewBox="0 0 122.88 62.97" style="enable-background:new 0 0 122.88 62.97" xml:space="preserve">
  <style type="text/css">.st0{fill-rule:evenodd;clip-rule:evenodd;}</style>
  <g>
    <path class="st0" d="M93.62,34.05c-1.47,0.27-2.91,0.77-3.69,2.72c-0.51,1.27-0.39,2.79,0.25,4.17c1.74-5.3,7.83-2.17,3.91,2.39 c2.87,0.14,4.68-1.86,4.97-4.57c0.14-1.28,0.25-1.97,0.53-2.52c0.15-0.3,0.36-0.56,0.64-0.86c0.94-1.03,1.99-1.93,3.01-3 c1.93-2.02,6.04-0.16,7.61-4.1c0.51-1.27,0.39-2.79-0.25-4.17c-1.74,5.29-7.83,2.17-3.91-2.39c-2.87-0.14-4.69,1.86-4.97,4.57 c-0.12,1.19,0.08,2.2-1.23,3.56c-0.93,0.93-1.91,1.87-2.86,2.78c-0.38,0.36-0.65,0.58-0.97,0.74c-0.57,0.29-1.28,0.37-3.02,0.68 L93.62,34.05L93.62,34.05z M13.61,26.26h56.45c0.9,0,1.63,0.73,1.63,1.63v11.46h3.64c0.3,1.12,0.68,2.2,1.12,3.25H8.22 c-2.26,0-4.32-0.92-5.81-2.41C0.92,38.7,0,36.64,0,34.38V8.22c0-2.26,0.92-4.32,2.41-5.8C3.9,0.92,5.96,0,8.22,0h93.14 c2.26,0,4.32,0.92,5.8,2.41c1.49,1.49,2.41,3.53,2.41,5.79c-1.09-0.41-2.21-0.75-3.36-1.01c-0.2-0.95-0.68-1.81-1.35-2.48 c-0.9-0.9-2.14-1.46-3.5-1.46H8.22c-1.36,0-2.6,0.56-3.5,1.46c-0.9,0.9-1.46,2.14-1.46,3.5v26.16c0,1.36,0.56,2.6,1.46,3.5 c0.9,0.9,2.14,1.46,3.5,1.46h3.77V27.89C11.98,26.99,12.71,26.26,13.61,26.26L13.61,26.26L13.61,26.26z M100.4,10.04 c6.21,0,11.83,2.52,15.9,6.58c4.07,4.07,6.58,9.69,6.58,15.9c0,6.21-2.52,11.83-6.58,15.9c-4.07,4.07-9.69,6.58-15.9,6.58 c-6.21,0-11.83-2.52-15.9-6.58c-4.07-4.07-6.58-9.69-6.58-15.9c0-6.21,2.52-11.83,6.58-15.9C88.57,12.56,94.19,10.04,100.4,10.04 L100.4,10.04z M113.47,19.46c-3.34-3.34-7.96-5.41-13.07-5.41c-5.1,0-9.72,2.07-13.07,5.41c-3.34,3.34-5.41,7.96-5.41,13.07 c0,5.1,2.07,9.72,5.41,13.07c3.34,3.34,7.96,5.41,13.07,5.41c5.1,0,9.72-2.07,13.07-5.41c3.34-3.34,5.41-7.96,5.41-13.07 C118.88,27.42,116.81,22.8,113.47,19.46L113.47,19.46z M68.43,29.52H15.24v9.43h53.19V29.52L68.43,29.52z M14.21,12.74 c-0.9,0-1.63-0.73-1.63-1.63c0-0.9,0.73-1.63,1.63-1.63h55.94c0.9,0,1.63,0.73,1.63,1.63c0,0.9-0.73,1.63-1.63,1.63H14.21 L14.21,12.74z M14.21,20.33c-0.9,0-1.63-0.73-1.63-1.63c0-0.9,0.73-1.63,1.63-1.63h55.94c0.9,0,1.63,0.73,1.63,1.63 c0,0.9-0.73,1.63-1.63,1.63H14.21L14.21,20.33z M19.96,47.99c-0.5-0.48-0.3-1.12,0.44-1.44c0.74-0.32,1.75-0.19,2.25,0.28 c3.53,3.37,1.83,6.09,0.2,8.71c-1.23,1.98-2.42,3.88-0.24,5.78c0.53,0.46,0.37,1.11-0.35,1.45c-0.72,0.34-1.74,0.24-2.27-0.22 c-3.24-2.83-1.73-5.25-0.16-7.77C21.17,52.66,22.55,50.45,19.96,47.99L19.96,47.99L19.96,47.99z M33.64,47.99 c-0.5-0.48-0.3-1.12,0.44-1.44c0.74-0.32,1.75-0.19,2.25,0.28c3.53,3.37,1.83,6.09,0.2,8.71c-1.23,1.98-2.42,3.88-0.24,5.78 c0.53,0.46,0.37,1.11-0.35,1.45c-0.72,0.34-1.74,0.24-2.27-0.22c-3.24-2.83-1.73-5.25-0.16-7.77 C34.84,52.66,36.22,50.45,33.64,47.99L33.64,47.99L33.64,47.99z M47.32,47.99c-0.5-0.48-0.3-1.12,0.44-1.44 c0.74-0.32,1.75-0.19,2.25,0.28c3.53,3.37,1.83,6.09,0.2,8.71c-1.23,1.98-2.42,3.88-0.24,5.78c0.53,0.46,0.37,1.11-0.35,1.45 c-0.72,0.34-1.74,0.24-2.27-0.22c-3.24-2.83-1.73-5.25-0.16-7.77C48.52,52.66,49.9,50.45,47.32,47.99L47.32,47.99L47.32,47.99z M61,47.99c-0.5-0.48-0.3-1.12,0.44-1.44c0.74-0.32,1.75-0.19,2.25,0.28c3.53,3.37,1.83,6.09,0.2,8.71 c-1.23,1.98-2.42,3.88-0.24,5.78c0.53,0.46,0.37,1.11-0.35,1.45c-0.72,0.34-1.74,0.24-2.27-0.22c-3.24-2.83-1.73-5.25-0.16-7.77 C62.2,52.66,63.58,50.45,61,47.99L61,47.99L61,47.99z"/>
  </g>
</svg>